# xmcd
#
# Track frame offsets:
#	150
#	17306
#	33003
#	48996
#	68935
#	89224
#	106358
#	127236
#	139088
#	150489
#	167933
#	187638
#	202731
#	219065
#	227353
#	239543
#	255279
#
# Disc length: 3617 seconds
#
# Revision: 1
# Processed by: cddbd v1.5.2PL0 Copyright (c) Steve Scherf et al.
# Submitted via: audiograbber 1.83.01
#
DISCID=d30e1f11
DTITLE=Various Artist - CDXMAS 1029
DYEAR=2010
DGENRE=Country Christmas
TTITLE0=Vince Vance and the Valiants - All I Want For Christmas Is You
TTITLE1=Vince Vance and the Valiants - Christmas Just Ain't Christmas Without You
TTITLE2=Clay Walker - All Wrapped Up In You
TTITLE3=Lee Brice - O Holy Night
TTITLE4=Highway 101 - Six Gold Coins 
TTITLE5=Jeff Cook and the Allstar Goodtime Band - Rock And Roll Guitar
TTITLE6=Point Of Grace - Labor of Love
TTITLE7=The Geezinslaws - Lighten Up, It's Christmas
TTITLE8=The Geezinslaws - Randolf, the Brown Nosed Reindeer
TTITLE9=Elizabeth Montgomery - Angels We Have Heard on High 
TTITLE10=Elizabeth Montgomery - Fill Your Heart With Christmas
TTITLE11=Gord Bamford - Baseball Glove
TTITLE12=Eddie and the Icicles ft. Eddie Bush - I C Christmas 
TTITLE13=Mo Kekko - Take Jesus Shopping 
TTITLE14=Pat Garrett - Happy New Year Baby 
TTITLE15=Sherwin Linton - Santa Got a DWI 
TTITLE16=Sherwin Linton - Global Warming Christmas 
EXTD=
EXTT0=
EXTT1=
EXTT2=
EXTT3=
EXTT4=
EXTT5=
EXTT6=
EXTT7=
EXTT8=
EXTT9=
EXTT10=
EXTT11=
EXTT12=
EXTT13=
EXTT14=
EXTT15=
EXTT16=
PLAYORDER=
